<svg width="96" height="96" viewBox="0 0 96 96" fill="none" xmlns="http://www.w3.org/2000/svg">
<rect width="96" height="96" rx="8" fill="white"/>
<path d="M61.7319 13V20H58.2988V31.3502C58.2988 35.4018 59.1612 39.4051 60.8266 43.0839L75.5249 75.5499C76.7165 78.1826 75.5894 81.3018 73.007 82.5167C72.3304 82.8352 71.5943 83 70.849 83H25.1497C22.3056 83 20 80.6494 20 77.75C20 76.9902 20.1617 76.2398 20.474 75.5499L35.1721 43.0839C36.8375 39.4051 37.7 35.4018 37.7 31.3502V20H34.2669V13H61.7319ZM52.7643 41.0042H43.2346C42.8765 42.2754 42.4477 43.5274 41.9492 44.7534L41.4064 46.0173L27.8297 76H68.1656L54.5924 46.0173C53.8563 44.3919 53.2459 42.7157 52.7643 41.0042ZM44.5663 31.3502C44.5663 32.2369 44.5333 33.1218 44.4674 34.003H51.5314C51.4995 33.5794 51.4755 33.1548 51.4593 32.7296L51.4325 31.3502V20H44.5663V31.3502Z" fill="#282EF4"/>
</svg>
